<?xml version="1.0" standalone="no"?><!DOCTYPE svg PUBLIC "-//W3C//DTD SVG 1.1//EN" "http://www.w3.org/Graphics/SVG/1.1/DTD/svg11.dtd"><svg t="1624357375367" class="icon" viewBox="0 0 1256 1024" version="1.1" xmlns="http://www.w3.org/2000/svg" p-id="2448" xmlns:xlink="http://www.w3.org/1999/xlink" width="245.3125" height="200"><defs><style type="text/css"></style></defs><path d="M850.705332 311.132626a161.549633 161.549633 0 0 1 43.315144 3.937741C854.660119 133.900218 665.597443 0 445.049891 0 200.85885 0 0 165.351001 0 378.091259c0 122.104044 66.958632 224.502339 177.283548 299.336452L133.900218 811.413161l153.605966-78.771853a691.695627 691.695627 0 0 0 157.543707 23.626442h43.315144a365.596178 365.596178 0 0 1-11.813221-94.522815c-3.93774-193.068602 161.481447-350.612309 374.153518-350.612309zM610.469078 189.045629a51.667926 51.667926 0 0 1 55.145412 55.145412 53.849878 53.849878 0 0 1-55.145412 55.145411c-31.501923 0-66.958632-23.626442-66.958632-55.145411s35.439663-55.145411 66.958632-55.145412z m-311.149673 110.273776c-31.501923 0-66.958632-23.626442-66.958632-55.145411 0-35.439663 35.439663-55.145411 66.958632-55.145411a51.667926 51.667926 0 0 1 55.145412 55.145411 49.826905 49.826905 0 0 1-55.145412 55.145411z" fill="#29C448" p-id="2449"></path><path d="M1256.37782 657.739009c0-177.283548-177.283548-322.962894-378.091259-322.962894-212.740257 0-378.091259 145.730486-378.091259 322.962894s165.351001 322.962894 378.091259 322.962894a531.850643 531.850643 0 0 0 133.917264-23.728721l122.121091 67.043864-31.536016-110.290822c86.647334-66.941586 153.58892-157.52666 153.58892-255.987215zM756.199564 602.593598a46.553978 46.553978 0 0 1-43.315144-43.315144 46.553978 46.553978 0 0 1 43.315144-43.315144c35.439663 0 55.145411 23.626442 55.145411 43.315144s-19.654609 43.315144-55.145411 43.315144z m244.19104 0a46.553978 46.553978 0 0 1-43.349236-43.332191 46.553978 46.553978 0 0 1 43.315143-43.315143c31.501923 0 55.145411 23.626442 55.145412 43.315143s-19.671655 43.33219-55.111319 43.332191z" fill="#29C448" p-id="2450"></path></svg>